<?xml version="1.0" encoding="utf-8"?>
<!-- Generator: Adobe Illustrator 24.2.0, SVG Export Plug-In . SVG Version: 6.00 Build 0)  -->
<svg version="1.1" xmlns="http://www.w3.org/2000/svg" xmlns:xlink="http://www.w3.org/1999/xlink" x="0px" y="0px"
	 viewBox="0 0 512 512" enable-background="new 0 0 512 512" xml:space="preserve">
<g id="Layer_2">
	<path fill="#ECB365" d="M106,156.44c38.56-17.49,114-29.11,180-0.11L276.43,180c-39.21-15.78-105.32-22.56-160.13,0"/>
	<path fill="#ECB365" d="M226,300.24c38.56,17.49,114,29.11,180,0.11l-9.57-23.67c-39.21,15.78-105.32,22.56-160.13,0"/>
	<path fill="#ECB365" d="M126,203.22c37.67-13.44,71.56-23.56,140.17,0l-10.5,24.94c-40.56-14.83-70.67-17.61-119.11,0"/>
	<path fill="#ECB365" d="M245,253.04c37.67,13.44,71.56,23.56,140.17,0l-10.5-24.94c-40.56,14.83-70.67,17.61-119.11,0"/>
	<path fill="#ECB365" d="M146,253c31.67-13,62.33-14.13,99.83,0l-9.72,24c-31.78-12.44-52-8.67-79.67,0"/>
	<path fill="#ECB365" d="M266,203.82c31.67,13,62.33,14.13,99.83,0l-9.72-24c-31.78,12.44-52,8.67-79.67,0"/>
	<path fill="#ECB365" d="M180.5,267l-24.06-0.22c0,3.35,0,6.7,0,10.05l39.39,97.01c9.43,0,28.28,0,28.28,0L180.5,267z"/>
</g>
</svg>
